<svg xmlns="http://www.w3.org/2000/svg" width="14.818" height="25.359" viewBox="0 0 14.818 25.359">
  <g id="Group_85" data-name="Group 85" transform="translate(-4860.81 -3339.466)">
    <path id="dollar-sign-solid" d="M21.361,0a1.521,1.521,0,0,1,1.522,1.522v1.7c.076.01.147.019.224.033.019,0,.033,0,.052.01l2.283.419A1.521,1.521,0,1,1,24.9,6.674l-2.26-.414a7.451,7.451,0,0,0-3.725.295c-.923.366-1.294.871-1.38,1.337a1.555,1.555,0,0,0,.057.97,1.623,1.623,0,0,0,.609.628A12.957,12.957,0,0,0,21.7,10.742l.138.038A15.058,15.058,0,0,1,26.1,12.388a4.626,4.626,0,0,1,1.708,1.879,4.54,4.54,0,0,1,.3,2.816A4.865,4.865,0,0,1,25,20.732a7.947,7.947,0,0,1-2.112.523v1.579a1.522,1.522,0,1,1-3.045,0v-1.66c-.019,0-.043,0-.062-.01h-.01a20.1,20.1,0,0,1-4.353-1.251,1.521,1.521,0,0,1,1.237-2.778,17.121,17.121,0,0,0,3.577,1.028,7.105,7.105,0,0,0,3.615-.252,1.835,1.835,0,0,0,1.275-1.375,1.586,1.586,0,0,0-.062-.97,1.637,1.637,0,0,0-.618-.633,13.084,13.084,0,0,0-3.52-1.251l-.133-.033h0a15.1,15.1,0,0,1-4.258-1.613,4.629,4.629,0,0,1-1.7-1.884,4.538,4.538,0,0,1-.29-2.816,4.945,4.945,0,0,1,3.249-3.611A8.8,8.8,0,0,1,19.838,3.2V1.522A1.521,1.521,0,0,1,21.361,0Z" transform="translate(4846.896 3339.967)"/>
    <rect id="Rectangle_53" data-name="Rectangle 53" width="3.092" height="26.83" rx="1.546" transform="matrix(0.893, 0.449, -0.449, 0.893, 4872.866, 3339.466)" fill="red"/>
  </g>
</svg>
