<svg xmlns="http://www.w3.org/2000/svg" width="25" height="17.544" viewBox="0 0 25 17.544">
  <path id="Union_92" data-name="Union 92" d="M-.427,17.042a6.338,6.338,0,0,1-2.026-1.366A6.355,6.355,0,0,1-4.32,11.169a6.391,6.391,0,0,1,.2-1.607l.8-3.775a1.1,1.1,0,0,1-1-1.093,1.1,1.1,0,0,1,1.1-1.1H5.839a1.1,1.1,0,1,1,0,2.192h-.7L2.279,10.581a1.1,1.1,0,0,0,.188,1.538l.059.046a1.1,1.1,0,0,0,1.538-.189l1.25-1.4L6.749,9.1,8.066,7.734l-.641-.642A1,1,0,1,1,8.834,5.684l.615.615.475-.493L9.517,5.4a1,1,0,0,1,1.408-1.409l.381.38.474-.492-.272-.272A1,1,0,1,1,12.917,2.2l.246.246L15.083.45A3.536,3.536,0,0,1,17.149,0a3.894,3.894,0,0,1,2,.338l1.267,1.094A.647.647,0,0,1,20.032,2.6l-.04,0H16.915L7.334,14.743a6.4,6.4,0,0,1-.772.933,6.355,6.355,0,0,1-4.507,1.868A6.34,6.34,0,0,1-.427,17.042Zm-1.1-5.774a1,1,0,0,0,1,1,1,1,0,0,0,1-1,1,1,0,0,0-1-1A1,1,0,0,0-1.531,11.268Zm1.2-3.685a1,1,0,1,0,1-1A1,1,0,0,0-.336,7.583Z" transform="translate(4.32)"/>
</svg>
