<svg xmlns="http://www.w3.org/2000/svg" width="24" height="24" viewBox="0 0 24 24">
  <g id="Group_86" data-name="Group 86" transform="translate(-313 -6307)">
    <g id="Ellipse_16" data-name="Ellipse 16" transform="translate(321 6315)" fill="none" stroke="#000" stroke-width="1">
      <circle cx="4" cy="4" r="4" stroke="none"/>
      <circle cx="4" cy="4" r="3.5" fill="none"/>
    </g>
    <g id="Rectangle_81" data-name="Rectangle 81" transform="translate(324 6324)" fill="none" stroke="#000" stroke-width="1">
      <rect width="2" height="7" rx="1" stroke="none"/>
      <rect x="0.5" y="0.5" width="1" height="6" rx="0.5" fill="none"/>
    </g>
    <g id="Rectangle_82" data-name="Rectangle 82" transform="translate(320 6318) rotate(90)" fill="none" stroke="#000" stroke-width="1">
      <rect width="2" height="7" rx="1" stroke="none"/>
      <rect x="0.5" y="0.5" width="1" height="6" rx="0.5" fill="none"/>
    </g>
    <g id="Rectangle_83" data-name="Rectangle 83" transform="translate(337 6318) rotate(90)" fill="none" stroke="#000" stroke-width="1">
      <rect width="2" height="7" rx="1" stroke="none"/>
      <rect x="0.5" y="0.5" width="1" height="6" rx="0.5" fill="none"/>
    </g>
    <g id="Rectangle_84" data-name="Rectangle 84" transform="translate(332.95 6310) rotate(45)" fill="none" stroke="#000" stroke-width="1">
      <rect width="2" height="7" rx="1" stroke="none"/>
      <rect x="0.5" y="0.5" width="1" height="6" rx="0.5" fill="none"/>
    </g>
    <g id="Rectangle_85" data-name="Rectangle 85" transform="translate(320.95 6322) rotate(45)" fill="none" stroke="#000" stroke-width="1">
      <rect width="2" height="7" rx="1" stroke="none"/>
      <rect x="0.5" y="0.5" width="1" height="6" rx="0.5" fill="none"/>
    </g>
    <g id="Rectangle_86" data-name="Rectangle 86" transform="translate(316 6311.414) rotate(-45)" fill="none" stroke="#000" stroke-width="1">
      <rect width="2" height="7" rx="1" stroke="none"/>
      <rect x="0.5" y="0.5" width="1" height="6" rx="0.5" fill="none"/>
    </g>
    <g id="Rectangle_87" data-name="Rectangle 87" transform="translate(328 6323.414) rotate(-45)" fill="none" stroke="#000" stroke-width="1">
      <rect width="2" height="7" rx="1" stroke="none"/>
      <rect x="0.5" y="0.5" width="1" height="6" rx="0.5" fill="none"/>
    </g>
    <g id="Rectangle_88" data-name="Rectangle 88" transform="translate(324 6307)" fill="none" stroke="#000" stroke-width="1">
      <rect width="2" height="7" rx="1" stroke="none"/>
      <rect x="0.5" y="0.5" width="1" height="6" rx="0.5" fill="none"/>
    </g>
  </g>
</svg>
