<svg width="936" height="563" viewBox="0 0 936 563" fill="none" xmlns="http://www.w3.org/2000/svg">
<path fill-rule="evenodd" clip-rule="evenodd" d="M910.5 0C899.339 0 889.853 7.17041 886.396 17.1558C863.435 55.1565 821.529 96.7124 766.904 132.046C719.395 162.778 670.388 183.548 627.829 193H587V146C587 125.565 570.435 109 550 109C529.565 109 513 125.565 513 146V192H458V146C458 125.565 441.435 109 421 109C400.565 109 384 125.565 384 146V192H329V146C329 125.565 312.435 109 292 109C271.565 109 255 125.565 255 146V193H72.6328C68.2705 177.424 53.9693 166 37 166C16.5655 166 0 182.565 0 203V271C0 291.435 16.5655 308 37 308C52.8598 308 66.389 298.021 71.6517 284H120.253C104.2 311.453 95 343.402 95 377.5C95 479.949 178.051 563 280.5 563H562.5C664.949 563 748 479.949 748 377.5C748 359.877 745.543 342.828 740.952 326.677C749.62 331.588 758.287 336.835 766.904 342.409C821.891 377.977 863.989 419.849 886.85 458.053C890.63 467.403 899.795 474 910.5 474C924.583 474 936 462.583 936 448.5V25.5C936 11.4167 924.583 0 910.5 0ZM513 284H458V471H513V284ZM587 468.275V286.725C627.77 296.797 658 333.618 658 377.5C658 421.382 627.77 458.203 587 468.275ZM384 471V284H329V471H384ZM255 468.022V286.978C214.736 297.401 185 333.978 185 377.5C185 421.022 214.736 457.599 255 468.022Z" fill="#00446E"/>
</svg>
